PathFileType	4	(X/Y/Z)	Patient4_TMGait_0pt5_01_left_03.trc.trc
DataRate	CameraRate	NumFrames	NumMarkers	Units	OrigDataRate	OrigDataStartFrame	OrigNumFrames
71.794871794872	71.794871794872	7	33	mm	71.794871794872	89	       141
Frame#	Time	L.ASIS			Sacral			L.Shoulder			Chest			R.Shoulder			Neck			R.ASIS			R.Thigh.Superior			R.Thigh.Lateral			R.Thigh.Inferior			R.Patella			L.Thigh.Superior			L.Thigh.Lateral			L.Thigh.Inferior			L.Patella			L.Shank.Superior			L.Shank.Lateral			L.Shank.Inferior			R.Shank.Superior			R.Shank.Lateral			R.Shank.Inferior			R.Heel			R.Midfoot.Superior			R.Midfoot.Lateral			R.Toe			L.Heel			L.Midfoot.Lateral			L.Midfoot.Superior			L.Toe			L.Elbow			L.Wrist			R.Elbow			R.Wrist			
		X1	Y1	Z1	X2	Y2	Z2	X3	Y3	Z3	X4	Y4	Z4	X5	Y5	Z5	X6	Y6	Z6	X7	Y7	Z7	X8	Y8	Z8	X9	Y9	Z9	X10	Y10	Z10	X11	Y11	Z11	X12	Y12	Z12	X13	Y13	Z13	X14	Y14	Z14	X15	Y15	Z15	X16	Y16	Z16	X17	Y17	Z17	X18	Y18	Z18	X19	Y19	Z19	X20	Y20	Z20	X21	Y21	Z21	X22	Y22	Z22	X23	Y23	Z23	X24	Y24	Z24	X25	Y25	Z25	X26	Y26	Z26	X27	Y27	Z27	X28	Y28	Z28	X29	Y29	Z29	X30	Y30	Z30	X31	Y31	Z31	X32	Y32	Z32	X33	Y33	Z33	

89	5.045714285714	747.954631207546	958.004989813378	337.247520660127	526.375232626047	995.356225850579	485.004265117437	695.484262626854	1426.980272347290	307.442006822846	784.751414339673	1364.164199587364	479.012228359399	680.516493797192	1437.706419092837	642.888949613448	680.606846810235	1491.428763559471	456.909810558976	751.522683558472	936.510070084376	612.234213761775	820.055197608165	751.466647018307	578.154857502898	755.475850123522	632.868977418909	639.356727298719	840.461967405831	590.240867345877	559.488930664409	855.346995291580	499.403029164256	567.262546485078	761.482248271822	731.509539898573	360.359875133312	651.814823203495	630.810711016215	300.070156192574	720.869829853429	537.766400849466	360.462482963125	706.688117217743	458.752924574754	363.555884042012	651.008382010994	399.406991464321	356.471390734233	524.634465937787	325.756243357507	304.630536521411	534.961335335545	199.591106424330	369.200047797654	830.178026367752	409.233240666674	576.278934794578	764.421209768731	303.785719336036	639.985663151459	810.737985059562	209.506464788660	580.443842123783	683.396659603094	42.697421236263	554.887441287315	853.272120529223	98.676050350331	590.647036000615	766.445642900157	36.871036659196	630.021402804270	973.621122002269	48.207835207458	620.149458686167	363.201251152410	81.224350568322	405.069999549907	437.519396930363	55.019105245443	330.783202487649	530.989715782442	100.697531460489	355.642422529743	644.604191858526	35.949697070882	339.950480003066	726.235998190859	1075.543836371367	183.289524477268	931.840997196667	914.088852819624	195.492506299519	577.098325607539	1109.858315750110	757.148899090975	642.004027094235	856.449373442310	772.114130474767	
90	5.059642857143	747.814722027970	958.749110138701	340.697108592956	527.071780769585	996.258707841691	489.491339411573	694.403498703732	1427.855740744945	310.311584134919	785.112410562781	1365.265109539096	481.237713091685	682.184249210143	1438.747216895586	645.910322347549	680.571392143999	1492.389774683045	459.955731100326	752.920754978801	937.632411406976	615.580236397355	819.609570655091	750.773254904845	581.841385833438	753.162211055950	632.826681294277	642.054359882153	837.730927883653	589.566690893481	562.173249997788	851.269351285082	498.712480994415	569.116181108755	765.776774200478	733.281421874736	363.559483398472	659.629070310071	630.321991869029	302.450536953000	731.639781864572	538.254181090654	362.242422592495	718.313776209600	457.696367894996	363.841046793927	659.829030222769	398.911665901397	357.025624858974	530.685095945522	330.281289730804	305.362199039782	536.866989507901	203.314792573449	368.474658196956	825.681683452231	408.695190051099	577.776992801564	759.360688707080	303.405886158810	641.011507536578	804.847690030630	209.096445626573	580.973641021907	676.489897255001	42.724074520018	554.928011661899	846.489475352668	98.543572272681	590.711724243971	759.505647098648	36.826135145817	630.070869944226	966.774105851549	47.808773240259	620.244095778241	360.929500998629	93.204099505235	403.850199794599	433.411381857449	62.066556702146	330.078307654478	528.934973423424	102.987179013094	354.299519524264	637.658585916230	35.064891367845	340.109473403442	722.627126519554	1075.801655717763	187.158101088073	920.750994239507	904.815400135707	197.334729948585	584.437720667017	1109.404866972517	762.136181722719	661.849527369809	859.647127254434	776.544759948458	
91	5.073571428571	747.466410407256	959.354679108401	344.141742789379	527.608037821611	997.076280369478	494.007424590908	693.155692468228	1428.512626615852	313.100304524238	785.393977416828	1366.212715826136	483.359787941368	683.856185668389	1439.703762058253	648.823641515032	680.430755208356	1493.190146085676	462.884565510205	754.193307001786	938.573161302613	618.896009331303	818.952200393071	749.941218586152	585.546202862502	750.655717923645	632.738030512062	644.859413445019	834.745438657498	588.816237566650	564.932419033212	846.954776527071	497.989119621027	571.123348504483	770.370073833393	735.211877809133	366.821109422242	668.352646722483	629.899812710428	304.588385571058	743.336029678827	539.040739822719	363.990261304553	730.967811417869	456.970960660876	364.142543522559	669.822909995500	398.674293164776	357.514303737404	538.121953836480	335.344010903516	305.903863217948	539.864021343046	207.861973841110	367.715041830237	820.984217999564	408.112201769257	579.424672909887	754.134757004884	302.943479960053	642.162162807265	798.852793229118	208.639753258646	581.600091088552	669.505139197083	42.731984842019	554.984514290346	839.654891567633	98.340481693624	590.803369187007	752.486911405962	36.744770832610	630.142852729903	959.873896276658	47.281802977437	620.349854081630	359.881248818031	107.085572276456	402.522695409070	430.095712050354	70.773311584000	329.279137401285	527.599923081529	106.151907384230	352.974675832742	630.647651057244	34.150047255512	340.272380059626	718.826786956603	1075.824707188398	191.084135929044	908.615801231481	895.326582365776	198.994406824647	592.019565094741	1109.058769672555	767.305294704052	682.298154127461	863.799440784577	780.989641191452	
92	5.087500000000	746.861290534879	959.788853185971	347.503458000233	527.940267562160	997.790418121506	498.523680062800	691.772975294151	1428.940064560167	315.799676608356	785.607038715222	1366.956802569878	485.360392597560	685.550005633635	1440.533889842998	651.614334076145	680.227575118203	1493.809102146225	465.684448201222	755.315832668826	939.331018028638	622.122160693835	818.105796390888	749.031262869807	589.169505889796	748.051215634076	632.632330822358	647.719931177286	831.589043576087	588.030226284847	567.700264144545	842.491128732469	497.250855593227	573.241150329352	775.143693930815	737.326249247393	370.112449210237	677.806338588653	629.629238313666	306.503733627704	755.714657501047	540.216418155073	365.742072511630	744.442294590600	456.688384225228	364.540954280987	680.828050861701	398.780774080720	358.006329931708	546.815892342142	340.939505543592	306.331986273321	543.907167146814	213.231386794062	367.018547172924	816.163512750269	407.501436530106	581.189421035073	748.821220623571	302.429699782331	643.433765236616	792.799953037952	208.153786585545	582.312155051176	662.471152409218	42.731035330986	555.069843274590	832.786948214572	98.097008157627	590.933019100119	745.421294281809	36.643815096916	630.247161620191	952.944151894663	46.671754778887	620.471446509470	360.145123378591	122.634996186666	401.208269439018	427.707055516460	81.103543637577	328.459117609138	527.030661162163	110.297452484473	351.757451620792	623.750138713415	33.256484412551	340.394583812178	714.811186571014	1075.583871188750	195.082946496043	895.445272466788	885.759848311411	200.520591163100	599.900066673903	1108.782604987731	772.626951742036	703.261765191280	868.912162141893	785.368528764975	
93	5.101428571429	745.963604752459	960.044234479138	350.707289950879	528.034369514465	998.395748284618	503.007997568989	690.284724954170	1429.149492905774	318.403225523347	785.759578445261	1367.469335510670	487.222869244219	687.280503535198	1441.213345088702	654.273735253849	680.006463951620	1494.245708830282	468.347945756862	756.266042561272	939.920767458659	625.199195363045	817.082683797779	748.099002354899	592.628819421812	745.411661174671	632.531332535794	650.580785695059	828.325143148950	587.241424126345	570.418178694298	837.945330985871	496.515541397733	575.418855602160	779.965293347784	739.661958369429	373.390538071918	687.754478817241	629.609883064324	308.228339223685	768.493442827394	541.878653993886	367.515100872441	758.491752163212	456.963595909610	365.085887665246	692.635378006235	399.321552935164	358.552690159266	556.569934006866	347.026992403926	306.731462532779	548.928317303679	219.353886822067	366.474409058012	811.278678036931	406.883072193695	583.028536767806	743.477267866410	301.897445748516	644.806683091060	786.724931146097	207.659991609682	583.092795495073	655.416336181510	42.731714481616	555.192211502514	825.904039169595	97.842262009012	591.108174069161	738.339612724922	36.538666204880	630.388389912013	946.006855014376	46.023232004172	620.612688850213	361.770339618342	139.422816979384	400.049724891542	426.385628404112	92.846794291386	327.704678198387	527.298495296734	115.440751331465	350.725413806885	617.253336060622	32.457119577984	340.418759275393	710.545288268744	1075.077133616347	199.160589539277	881.267639098330	876.272036520550	201.972572323440	608.136546290578	1108.549309297905	778.054772777943	724.646370080741	874.979474030545	789.595616599535	
94	5.115357142857	744.754079105245	960.140613150397	353.690480899864	527.869376539184	998.902582899017	507.424556507095	688.715432698701	1429.175177891007	320.907299057260	785.856466918952	1367.748694026409	488.933855728476	689.057762479861	1441.738299379926	656.798622698941	679.809558274308	1494.519369445773	470.872960445077	757.024680239722	940.369860660838	628.072915292144	815.883118213101	747.188921495813	595.863465283382	742.761257189900	632.448885962639	653.386613001746	824.987890513513	586.472494760557	573.036625095022	833.353773763692	495.799805884670	577.600736861885	784.697621814486	742.263231222702	376.603798431935	697.920572828571	629.945151589119	309.799679083794	781.372929582599	544.121786172677	369.299715675717	772.847075297361	457.905062969426	365.786801903516	705.006022640588	400.380554193776	359.177446791741	567.137241188767	353.517791158093	307.183278858902	554.854824388504	226.079963608873	366.150699309972	806.362108150201	406.278326113908	584.892376805262	738.132107718921	301.377925977101	646.247500889841	780.647681384919	207.181136608605	583.920049019723	648.363700586734	42.743282772270	555.354445856674	819.020794135344	97.600242220319	591.330838811208	731.266458102727	36.441583860139	630.565682553553	939.078318759076	45.375397800568	620.775167630247	364.771442498933	156.825217990291	399.193044672104	426.279696543434	105.601626117672	327.103023685748	528.512439672856	121.482329562228	349.932386015434	611.560148805455	31.836257972617	340.278877092526	705.985356593925	1074.333388133241	203.311797038820	866.133863136176	867.035444676745	203.417036331558	616.781115200985	1108.347037940659	783.526758569813	746.349555302177	881.986061023946	793.581706449159	
95	5.129285714286	743.231216149615	960.122803124816	356.409878717611	527.439118798727	999.337373820425	511.734391398509	687.084843729853	1429.071739508016	323.311678965994	785.900561909768	1367.819695689782	490.484999552780	690.887297857971	1442.125137050835	659.190331303712	679.672943126895	1494.667585502872	473.263083284551	757.575960129558	940.713858338768	630.700291672810	814.495605127209	746.331343986300	598.835171328914	740.085737674581	632.392462316414	656.084886728657	821.578531509629	585.735957184441	575.515294794037	828.718218516865	495.118532414209	579.729677551778	789.207913096995	745.174293441520	379.695837427225	708.008850319529	630.729121781589	311.254734624720	794.058802549656	547.025032945271	371.056993628354	787.231644753866	459.604087158184	366.611907024705	717.692276319850	402.022661828159	359.874488172211	578.246995641224	360.266278656052	307.752545392447	561.629864615436	233.175254662919	366.084141689788	801.416444391150	405.707955663072	586.728465291363	732.785017576143	300.898226722436	647.713212495349	774.570784320633	206.739210270617	584.768860766069	641.328082981224	42.772352695754	555.554116018375	812.146118832468	97.387895976338	591.596945546537	724.217360914391	36.360871728849	630.773414212221	932.167113024028	44.759436676092	620.957562693502	369.140794812233	174.051375748535	398.764515920718	427.549861238478	118.784193239448	326.727489979373	530.828489462976	128.192295519197	349.399949328730	607.182554352442	31.472354405557	339.906389770909	701.081873417135	1073.412663111983	207.519209919264	850.121079061648	858.231115618074	204.923822099848	625.874680874343	1108.181815639703	788.968562047737	768.259043614376	889.909488208275	797.237095738353	
